# xmcd
#
# Track frame offsets: 
#        150
#        16575
#        33107
#        48897
#        66410
#        81920
#        99912
#        117130
#        132705
#        148830
#        169592
#        188590
#        204940
#        223342
#        241232
#        258075
#        272407
#        291512
#        309980
#
# Disc length: 4376 seconds
#
# Revision: 0
# Processed by: cddbd v1.5.1PL0 Copyright (c) Steve Scherf et al.
# Submitted via: ExactAudioCopy v0.95a5
#
DISCID=09111613
DTITLE=众星 - 台语经典名曲
DYEAR=2002
DGENRE=Bass
TTITLE0=爱拼才会赢
TTITLE1=烧酒话
TTITLE2=一支小雨伞
TTITLE3=爱情一阵风
TTITLE4=心事谁人知
TTITLE5=红灯码头
TTITLE6=后悔的目屎
TTITLE7=看着想着伊
TTITLE8=吃亏的爱情
TTITLE9=情梦
TTITLE10=落山风
TTITLE11=一条毛巾仔
TTITLE12=爽快干一杯
TTITLE13=浪子的忏悔
TTITLE14=酒国英雄
TTITLE15=心内事无人知
TTITLE16=扰是为着你啦
TTITLE17=爱情恰恰
TTITLE18=爱情骗子我问你
EXTD=
EXTT0=
EXTT1=
EXTT2=
EXTT3=
EXTT4=
EXTT5=
EXTT6=
EXTT7=
EXTT8=
EXTT9=
EXTT10=
EXTT11=
EXTT12=
EXTT13=
EXTT14=
EXTT15=
EXTT16=
EXTT17=
EXTT18=
PLAYORDER=
